<svg width="32" height="32" viewBox="0 0 32 32" fill="none" xmlns="http://www.w3.org/2000/svg">
  <rect width="32" height="32" rx="8" fill="#0F172A"/>
  <rect width="32" height="32" rx="8" fill="url(#paint0_linear)"/>
  
  <!-- Presentation Box -->
  <path d="M7 10C7 8.89543 7.89543 8 9 8H23C24.1046 8 25 8.89543 25 10V18C25 19.1046 24.1046 20 23 20H9C7.89543 20 7 19.1046 7 18V10Z" stroke="white" stroke-width="2" stroke-linecap="round" stroke-linejoin="round"/>
  
  <!-- PPT text inside -->
  <path d="M11 11V17M11 11H13C13.5523 11 14 11.4477 14 12V13C14 13.5523 13.5523 14 13 14H11M16 11V17M16 11H18C18.5523 11 19 11.4477 19 12V13C19 13.5523 18.5523 14 18 14H16" stroke="white" stroke-width="1.5" stroke-linecap="round" stroke-linejoin="round"/>
  
  <!-- To / Arrow -->
  <path d="M16 26L16 23M16 26L14 24M16 26L18 24" stroke="#22D3EE" stroke-width="2" stroke-linecap="round" stroke-linejoin="round"/>
  <rect x="13" y="19" width="6" height="3" fill="#0F172A"/>

  <!-- PDF Bottom Tag -->
  <rect x="7" y="24" width="18" height="6" rx="2" fill="#22D3EE"/>
  
  <!-- Gradient -->
  <defs>
    <linearGradient id="paint0_linear" x1="0" y1="0" x2="32" y2="32" gradientUnits="userSpaceOnUse">
      <stop stop-color="#6366F1" stop-opacity="0.8"/>
      <stop offset="1" stop-color="#06B6D4" stop-opacity="0.8"/>
    </linearGradient>
  </defs>
</svg>
